<svg fill="none" height="24" viewBox="0 0 25 24" width="25" xmlns="http://www.w3.org/2000/svg">
    <path
        d="M18.9832 22.5H7.01681C3.81969 22.5 1.78724 20.83 1.60454 18.04L1.01079 9.79C0.919445 8.54 1.41043 7.34 2.3924 6.43C3.36296 5.52 4.73316 5 6.14902 5C6.51441 5 6.86838 4.81 7.03965 4.51L7.86177 3.08C8.53545 1.91 10.2254 1 11.6983 1H14.3131C15.7861 1 17.4646 1.91 18.1382 3.07L18.9603 4.53C19.1316 4.81 19.4742 5 19.851 5C21.2668 5 22.637 5.52 23.6076 6.43C24.5896 7.35 25.0806 8.54 24.9892 9.79L24.3955 18.05C24.1899 20.88 22.2146 22.5 18.9832 22.5ZM11.6983 2.5C10.8534 2.5 9.78004 3.08 9.39182 3.75L8.5697 5.19C8.09013 6 7.16525 6.5 6.14902 6.5C5.18989 6.5 4.29926 6.84 3.637 7.45C2.98616 8.06 2.65503 8.86 2.72354 9.69L3.31729 17.95C3.45431 19.97 4.6989 21 7.01681 21H18.9832C21.2897 21 22.5343 19.97 22.6827 17.95L23.2765 9.69C23.3336 8.86 23.0138 8.06 22.363 7.45C21.7007 6.84 20.8101 6.5 19.851 6.5C18.8347 6.5 17.9099 6 17.4303 5.21L16.5968 3.75C16.22 3.09 15.1466 2.51 14.3017 2.51H11.6983V2.5Z"
        fill="white" />
    <path
        d="M14.25 8.75H11.25C10.84 8.75 10.5 8.41 10.5 8C10.5 7.59 10.84 7.25 11.25 7.25H14.25C14.66 7.25 15 7.59 15 8C15 8.41 14.66 8.75 14.25 8.75Z"
        fill="white" />
    <path
        d="M12.75 18.75C10.54 18.75 8.75 16.96 8.75 14.75C8.75 12.54 10.54 10.75 12.75 10.75C14.96 10.75 16.75 12.54 16.75 14.75C16.75 16.96 14.96 18.75 12.75 18.75ZM12.75 12.25C11.37 12.25 10.25 13.37 10.25 14.75C10.25 16.13 11.37 17.25 12.75 17.25C14.13 17.25 15.25 16.13 15.25 14.75C15.25 13.37 14.13 12.25 12.75 12.25Z"
        fill="white" />
</svg>
