<svg fill="none" height="29" viewBox="0 0 29 29" width="29" xmlns="http://www.w3.org/2000/svg">
    <path
        d="M14.5151 27.165C13.7101 27.165 12.9517 26.7567 12.4151 26.045L10.6651 23.7117C10.6301 23.665 10.4901 23.6067 10.4317 23.595H9.84839C4.98339 23.595 1.97339 22.2767 1.97339 15.72V9.88666C1.97339 4.72999 4.69172 2.01166 9.84839 2.01166H19.1817C24.3384 2.01166 27.0567 4.72999 27.0567 9.88666V15.72C27.0567 20.8767 24.3384 23.595 19.1817 23.595H18.5984C18.5051 23.595 18.4234 23.6417 18.3651 23.7117L16.6151 26.045C16.0784 26.7567 15.3201 27.165 14.5151 27.165ZM9.84839 3.76166C5.67172 3.76166 3.72339 5.70999 3.72339 9.88666V15.72C3.72339 20.9933 5.53172 21.845 9.84839 21.845H10.4317C11.0267 21.845 11.7034 22.1833 12.0651 22.6617L13.8151 24.995C14.2234 25.5317 14.8067 25.5317 15.2151 24.995L16.9651 22.6617C17.3501 22.1483 17.9567 21.845 18.5984 21.845H19.1817C23.3584 21.845 25.3067 19.8967 25.3067 15.72V9.88666C25.3067 5.70999 23.3584 3.76166 19.1817 3.76166H9.84839Z"
        fill="#292D32" />
    <path
        d="M20.3486 10.7617H8.68188C8.20355 10.7617 7.80688 10.365 7.80688 9.88666C7.80688 9.40832 8.20355 9.01166 8.68188 9.01166H20.3486C20.8269 9.01166 21.2236 9.40832 21.2236 9.88666C21.2236 10.365 20.8269 10.7617 20.3486 10.7617Z"
        fill="#292D32" />
    <path
        d="M15.6819 16.595H8.68188C8.20355 16.595 7.80688 16.1984 7.80688 15.72C7.80688 15.2417 8.20355 14.845 8.68188 14.845H15.6819C16.1602 14.845 16.5569 15.2417 16.5569 15.72C16.5569 16.1984 16.1602 16.595 15.6819 16.595Z"
        fill="#292D32" />
</svg>