<svg fill="none" height="66" viewBox="0 0 66 66" width="66" xmlns="http://www.w3.org/2000/svg">
    <path
        d="M33.0007 18.7778L21.6149 24.3284C19.296 25.4588 18.1366 26.024 17.2889 26.8773C16.5392 27.6322 15.9685 28.5452 15.6186 29.55C15.2229 30.686 15.2229 31.9756 15.2229 34.5556V65H50.7785V34.5556C50.7785 31.9756 50.7785 30.686 50.3828 29.55C50.0329 28.5452 49.4622 27.6322 48.7127 26.8773C47.8647 26.024 46.7052 25.4588 44.3863 24.3284L33.0007 18.7778ZM33.0007 18.7778V1M40.1118 8.11111H25.8896M15.2229 36.5556L7.28967 40.5221C5.00651 41.6635 3.86492 42.2341 3.03086 43.0857C2.2933 43.8388 1.73237 44.7465 1.38866 45.7428C1 46.8699 1 48.146 1 50.6988V65H65V50.6985C65 48.146 65 46.8695 64.6114 45.7428C64.2676 44.7465 63.7068 43.8388 62.9694 43.0857C62.1353 42.2341 60.9936 41.6635 58.7106 40.5218L50.7785 36.5556M40.1118 65V50.7778C40.1118 46.8503 36.9282 43.6667 33.0007 43.6667C29.0732 43.6667 25.8896 46.8503 25.8896 50.7778V65H40.1118Z"
        stroke="white" stroke-linecap="round" stroke-linejoin="round" stroke-width="2" />
</svg>