<svg fill="none" height="26" viewBox="0 0 26 26" width="26" xmlns="http://www.w3.org/2000/svg">
    <path
        d="M17.7999 4.42297C17.7998 5.32541 17.5143 6.1912 17.0055 6.83162C15.8343 8.30741 14.6979 9.84618 13.4823 11.268C13.3466 11.4225 13.1686 11.506 12.9851 11.5013C12.8015 11.4965 12.6264 11.4039 12.4959 11.2425L8.99435 6.83312C8.48535 6.19229 8.19971 5.32594 8.19971 4.42297C8.19971 3.51999 8.48535 2.65364 8.99435 2.01281C9.24833 1.69303 9.55044 1.43923 9.88326 1.26604C10.2161 1.09284 10.573 1.00367 10.9335 1.00367C11.2941 1.00367 11.651 1.09284 11.9838 1.26604C12.3167 1.43923 12.6188 1.69303 12.8727 2.01281L12.9999 2.17329L13.1271 2.01281C13.5084 1.53118 13.9957 1.20223 14.527 1.06784C15.0583 0.933442 15.6096 0.999688 16.1107 1.25814C16.6117 1.51659 17.0399 1.95555 17.3408 2.51915C17.6416 3.08274 17.8014 3.74547 17.7999 4.42297Z"
        stroke="#37313A" stroke-linejoin="round" stroke-width="1.5" />
    <path
        d="M20.2002 24.9998L24.789 19.2646C24.9241 19.096 25 18.8673 25.0002 18.6287V10.7518C25.0002 10.1552 24.8106 9.58295 24.473 9.16105C24.1354 8.73915 23.6776 8.50214 23.2002 8.50214C22.7228 8.50214 22.265 8.73915 21.9274 9.16105C21.5898 9.58295 21.4002 10.1552 21.4002 10.7518V17.5008"
        stroke="#37313A" stroke-linecap="round" stroke-linejoin="round" stroke-width="1.5" />
    <path
        d="M20.2 19.0006L21.2296 17.7138C21.2837 17.6463 21.3266 17.5661 21.3558 17.4778C21.3851 17.3895 21.4001 17.2949 21.4 17.1994C21.3998 17.0645 21.3697 16.9324 21.3129 16.8177C21.2561 16.703 21.1749 16.6103 21.0784 16.55L20.5468 16.2185C20.0964 15.9371 19.5866 15.8398 19.0896 15.9405C18.5925 16.0411 18.1334 16.3346 17.7772 16.7794L16.7032 18.1217C16.2531 18.6841 16.0001 19.447 16 20.2424V24.9998M5.8 24.9998L1.2112 19.2646C1.07614 19.096 1.00017 18.8673 1 18.6287V10.7518C1 10.1552 1.18964 9.58295 1.52721 9.16105C1.86477 8.73915 2.32261 8.50214 2.8 8.50214C3.27739 8.50214 3.73523 8.73915 4.07279 9.16105C4.41036 9.58295 4.6 10.1552 4.6 10.7518V17.5008"
        stroke="#37313A" stroke-linecap="round" stroke-linejoin="round" stroke-width="1.5" />
    <path
        d="M5.8001 19.0011L4.7705 17.7142C4.71646 17.6467 4.6736 17.5665 4.64436 17.4782C4.61512 17.3899 4.60008 17.2953 4.6001 17.1998C4.6001 16.9254 4.7249 16.6749 4.9217 16.5504L5.4533 16.219C5.90367 15.9375 6.41346 15.8402 6.91051 15.9409C7.40756 16.0416 7.86669 16.3351 8.2229 16.7799L9.2969 18.1222C9.74702 18.6846 9.99996 19.4474 10.0001 20.2429V25.0002"
        stroke="#37313A" stroke-linecap="round" stroke-linejoin="round" stroke-width="1.5" />
</svg>
