<svg fill="none" height="17" viewBox="0 0 18 17" width="18" xmlns="http://www.w3.org/2000/svg">
    <path clip-rule="evenodd" d="M0.968667 10.4157L10.6592 0.916618C11.906 -0.305539 13.9283 -0.305539 15.175 0.916618L16.4694 2.1854C17.7162 3.40755 17.7162 5.38985 16.4694 6.612L6.74061 16.1486C6.1843 16.6939 5.43007 16.9999 4.64282 16.9999H0.658541C0.288415 16.9999 -0.00901523 16.701 0.000208899 16.3383L0.100432 12.3975C0.120357 11.6526 0.43127 10.9425 0.968667 10.4157ZM15.5381 3.09831L14.2437 1.82953C13.5113 1.11156 12.323 1.11156 11.5905 1.82953L10.8382 2.56697L14.7862 6.43612L15.5381 5.69909C16.2705 4.98112 16.2705 3.81628 15.5381 3.09831ZM1.89998 11.3287L9.90692 3.47989L13.8549 7.34903L5.8093 15.2357L5.70228 15.3317C5.4067 15.5745 5.03222 15.7088 4.64282 15.7088L1.33345 15.7084L1.41707 12.4305C1.42814 12.0169 1.60126 11.6215 1.89998 11.3287ZM18 16.3545C18 15.998 17.7052 15.7089 17.3415 15.7089H10.471L10.3816 15.7148C10.0602 15.7576 9.81246 16.0277 9.81246 16.3545C9.81246 16.711 10.1073 17 10.471 17H17.3415L17.4308 16.9941C17.7523 16.9514 18 16.6813 18 16.3545Z"
        fill="white"
        fill-rule="evenodd" />
</svg>