<svg fill="none" height="29" viewBox="0 0 29 29" width="29" xmlns="http://www.w3.org/2000/svg">
    <path
        d="M20.2317 22.7317C19.87 22.7317 19.5084 22.6267 19.1934 22.4167L18.0734 21.6817C17.7584 21.4717 17.6067 21.0751 17.7117 20.7134C17.7934 20.4451 17.8284 20.13 17.8284 19.78V15.0317C17.8284 13.13 16.6384 11.94 14.7367 11.94H6.81505C6.67505 11.94 6.54672 11.9517 6.41839 11.9634C6.17339 11.9751 5.94006 11.8934 5.7534 11.7301C5.56673 11.5667 5.47339 11.3334 5.47339 11.0884V7.85671C5.47339 4.42671 7.87672 2.02338 11.3067 2.02338H21.2234C24.6534 2.02338 27.0567 4.42671 27.0567 7.85671V13.8067C27.0567 15.4983 26.4851 16.9917 25.4351 18.0183C24.5951 18.87 23.4284 19.4184 22.0984 19.5817V20.8767C22.0984 21.5767 21.7134 22.2067 21.1067 22.5334C20.8267 22.6617 20.5234 22.7317 20.2317 22.7317ZM19.5317 20.5384L20.2901 20.97C20.3601 20.935 20.36 20.8767 20.36 20.865V18.7533C20.36 18.275 20.7567 17.8783 21.235 17.8783C22.46 17.8783 23.4984 17.4934 24.2101 16.7701C24.9451 16.0467 25.3184 15.02 25.3184 13.795V7.84503C25.3184 5.36003 23.72 3.7617 21.235 3.7617H11.3184C8.83338 3.7617 7.23505 5.36003 7.23505 7.84503V10.1784H14.7484C17.5951 10.1784 19.5901 12.1734 19.5901 15.0201V19.7683C19.5784 20.0367 19.5667 20.2934 19.5317 20.5384Z"
        fill="#292D32" />
    <path
        d="M7.59673 27.095C7.34006 27.095 7.07173 27.0367 6.82673 26.9084C6.27839 26.6167 5.94005 26.0567 5.94005 25.4267V24.54C4.91338 24.3767 4.00339 23.945 3.32673 23.2683C2.44006 22.3816 1.97339 21.1683 1.97339 19.7683V15.02C1.97339 12.3834 3.70005 10.4467 6.26671 10.2017C6.45338 10.19 6.62838 10.1783 6.81505 10.1783H14.7367C17.5834 10.1783 19.5784 12.1734 19.5784 15.02V19.7683C19.5784 20.2816 19.52 20.76 19.3917 21.1917C18.8667 23.2917 17.0817 24.61 14.7367 24.61H11.8317L8.53005 26.8033C8.25005 27.0017 7.9234 27.095 7.59673 27.095ZM6.81505 11.9283C6.67505 11.9283 6.54672 11.94 6.41839 11.9517C4.73839 12.1034 3.72339 13.2584 3.72339 15.02V19.7683C3.72339 20.7016 4.01506 21.4833 4.56339 22.0316C5.10006 22.5683 5.88171 22.86 6.81505 22.86C7.29338 22.86 7.69005 23.2567 7.69005 23.735V25.2633L11.0734 23.0117C11.2134 22.9183 11.3884 22.86 11.5634 22.86H14.7367C16.2767 22.86 17.3617 22.09 17.7 20.7367C17.7817 20.445 17.8284 20.1183 17.8284 19.7683V15.02C17.8284 13.1184 16.6384 11.9283 14.7367 11.9283H6.81505Z"
        fill="#292D32" />
</svg>
