<svg fill="none" height="24" viewBox="0 0 24 24" width="24" xmlns="http://www.w3.org/2000/svg">
    <path
        d="M20.0941 19.0739C16.6724 22.9896 10.7104 23.3839 6.80227 19.9689C5.39414 18.7384 4.39309 17.1332 3.90273 15.3236C3.79804 14.9267 4.03201 14.507 4.42892 14.4023C4.82584 14.2976 5.24555 14.5316 5.35023 14.9285C5.75668 16.439 6.6061 17.7922 7.78833 18.8252C11.079 21.7007 16.0881 21.3635 18.9636 18.0728C21.8391 14.7822 21.5018 9.77305 18.2112 6.89755C14.9205 4.02205 9.90483 4.36684 7.02933 7.6575C6.42397 8.35027 5.92965 9.11352 5.56612 9.92466C5.39328 10.3048 4.95126 10.4763 4.57109 10.3035C4.19093 10.1306 4.01942 9.68862 4.19227 9.30845C4.62437 8.35804 5.18822 7.46963 5.89229 6.6639C9.31393 2.74825 15.276 2.35392 19.1841 5.76898C23.0922 9.18405 23.5157 15.1583 20.0941 19.0739Z"
        fill="#292D32" />
    <path
        d="M4.81611 11.2083C4.70425 11.3363 4.54062 11.4324 4.35814 11.4588C3.93673 11.5155 3.56308 11.2289 3.50731 10.8216L2.90896 6.46079C2.85319 6.05349 3.13891 5.66573 3.55374 5.61654C3.96103 5.56076 4.34222 5.85402 4.39799 6.26131L4.98881 10.6155C5.01812 10.8403 4.94771 11.0577 4.81611 11.2083Z"
        fill="#292D32" />
    <path
        d="M8.88626 10.2893C8.78755 10.4023 8.64462 10.4899 8.49131 10.5286L4.40731 11.4484C4.00944 11.539 3.60947 11.2825 3.51889 10.8846C3.42079 10.4802 3.67735 10.0802 4.08179 9.98208L8.15169 9.06313C8.54955 8.97256 8.95611 9.22158 9.04763 9.63356C9.11364 9.87716 9.0376 10.1162 8.88626 10.2893Z"
        fill="#292D32" />
</svg>
