<svg fill="none" height="29" viewBox="0 0 29 29" width="29" xmlns="http://www.w3.org/2000/svg">
    <path
        d="M20.3484 25.345H8.68172C4.42339 25.345 1.97339 22.895 1.97339 18.6367V10.47C1.97339 6.21166 4.42339 3.76166 8.68172 3.76166H20.3484C24.6067 3.76166 27.0567 6.21166 27.0567 10.47V18.6367C27.0567 22.895 24.6067 25.345 20.3484 25.345ZM8.68172 5.51166C5.34506 5.51166 3.72339 7.13332 3.72339 10.47V18.6367C3.72339 21.9733 5.34506 23.595 8.68172 23.595H20.3484C23.6851 23.595 25.3067 21.9733 25.3067 18.6367V10.47C25.3067 7.13332 23.6851 5.51166 20.3484 5.51166H8.68172Z"
        fill="#292D32" />
    <path
        d="M14.515 15.5683C13.535 15.5683 12.5433 15.265 11.785 14.6466L8.13329 11.73C7.75996 11.4266 7.68996 10.8783 7.9933 10.505C8.29663 10.1316 8.84497 10.0616 9.2183 10.365L12.87 13.2816C13.7566 13.9933 15.2616 13.9933 16.1483 13.2816L19.8 10.365C20.1733 10.0616 20.7333 10.12 21.025 10.505C21.3283 10.8783 21.27 11.4383 20.885 11.73L17.2333 14.6466C16.4866 15.265 15.495 15.5683 14.515 15.5683Z"
        fill="#292D32" />
</svg>