<svg fill="none" height="24" viewBox="0 0 24 24" width="24" xmlns="http://www.w3.org/2000/svg">
    <path
        d="M11.9998 9.32C13.1898 9.32 14.1598 8.35 14.1598 7.16C14.1598 5.97 13.1898 5 11.9998 5C10.8098 5 9.83984 5.97 9.83984 7.16C9.83984 8.35 10.8098 9.32 11.9998 9.32Z"
        stroke="#232323" stroke-linecap="round" stroke-linejoin="round" stroke-opacity="0.33"
        stroke-width="1.5" />
    <path
        d="M6.78988 19.0001C7.97988 19.0001 8.94988 18.0301 8.94988 16.8401C8.94988 15.6501 7.97988 14.6801 6.78988 14.6801C5.59988 14.6801 4.62988 15.6501 4.62988 16.8401C4.62988 18.0301 5.58988 19.0001 6.78988 19.0001Z"
        stroke="#232323" stroke-linecap="round" stroke-linejoin="round" stroke-opacity="0.33"
        stroke-width="1.5" />
    <path
        d="M17.2098 19.0001C18.3998 19.0001 19.3698 18.0301 19.3698 16.8401C19.3698 15.6501 18.3998 14.6801 17.2098 14.6801C16.0198 14.6801 15.0498 15.6501 15.0498 16.8401C15.0498 18.0301 16.0198 19.0001 17.2098 19.0001Z"
        stroke="#232323" stroke-linecap="round" stroke-linejoin="round" stroke-opacity="0.33"
        stroke-width="1.5" />
</svg>