<svg fill="none" height="262" viewBox="0 0 248 262" width="248" xmlns="http://www.w3.org/2000/svg">
    <path
        d="M234.219 147.832C217.549 108.448 174.723 80.0827 133.241 67.5996C25.8332 34.8164 -23.0546 186.882 10.6446 220.102C39.2753 256.13 74.5156 234.246 100.603 242.217C247.421 287.689 248.663 180.555 234.219 147.832Z"
        fill="#16ABB1" />
    <path d="M234.219 147.832C217.549 108.448 174.723 80.0827 133.241 67.5996C25.8332 34.8164 -23.0546 186.882 10.6446 220.102C39.2753 256.13 74.5156 234.246 100.603 242.217C247.421 287.689 248.663 180.555 234.219 147.832Z"
        fill="white"
        opacity="0.9" />
    <path
        d="M224.263 154.03L231.263 235.11C231.823 241.71 227.793 247.5 222.263 247.97L68.4026 261.17C62.9026 261.65 57.9326 256.63 57.4026 250.04L50.4026 168.95C50.2636 167.428 50.3819 165.893 50.7526 164.41C51.8526 159.88 55.1926 156.41 59.3726 156.1L213.233 142.89C217.403 142.53 221.233 145.34 223.143 149.6C223.758 151.005 224.137 152.502 224.263 154.03Z"
        fill="#16ABB1" />
    <path d="M224.263 154.03L231.263 235.11C231.823 241.71 227.793 247.5 222.263 247.97L68.4026 261.17C62.9026 261.65 57.9326 256.63 57.4026 250.04L50.4026 168.95C50.2636 167.428 50.3819 165.893 50.7526 164.41C51.8526 159.88 55.1926 156.41 59.3726 156.1L213.233 142.89C217.403 142.53 221.233 145.34 223.143 149.6C223.758 151.005 224.137 152.502 224.263 154.03Z"
        fill="black"
        opacity="0.1" />
    <path d="M242.529 201.826L241.437 201.958L241.878 205.612L242.97 205.48L242.529 201.826Z"
        fill="#16ABB1" />
    <path d="M240.4 184.187L239.308 184.319L240.953 197.93L242.045 197.798L240.4 184.187Z"
        fill="#16ABB1" />
    <path
        d="M231.153 139.53L241.213 222.69C242.023 229.45 238.083 235.55 232.443 236.23L74.6526 255.32C69.0126 256 63.7226 251.02 62.9026 244.25L52.8426 161.1C52.6512 159.536 52.7187 157.952 53.0426 156.41C54.0426 151.72 57.3226 148.07 61.6126 147.55L219.403 128.47C223.693 127.95 227.773 130.7 229.843 135.02C230.525 136.441 230.967 137.965 231.153 139.53Z"
        fill="#16ABB1" />
    <path d="M229.843 135.02L158.273 183.21C154.77 185.604 150.742 187.12 146.53 187.63C142.318 188.14 138.046 187.629 134.073 186.14L53.0726 156.41C54.0726 151.72 57.3526 148.07 61.6426 147.55L219.433 128.47C223.693 127.95 227.773 130.7 229.843 135.02Z"
        fill="black"
        opacity="0.1" />
    <path
        d="M203.143 152.99L182.583 166.83L175.853 171.37L158.273 183.21C154.861 185.551 150.945 187.056 146.843 187.601C142.741 188.147 138.568 187.718 134.663 186.35L134.033 186.14L124.173 182.52L101.973 174.37L91.5926 170.56L79.8326 166.24L78.9826 145.45L77.0726 99.25L167.403 95.58L201.833 121.67L202.193 130.54L203.143 152.99Z"
        fill="#16ABB1" />
    <path d="M203.143 152.99L182.583 166.83L175.853 171.37L158.273 183.21C154.861 185.551 150.945 187.056 146.843 187.601C142.741 188.147 138.568 187.718 134.663 186.35L134.033 186.14L124.173 182.52L101.973 174.37L91.5926 170.56L79.8326 166.24L78.9826 145.45L77.0726 99.25L167.403 95.58L201.833 121.67L202.193 130.54L203.143 152.99Z"
        fill="#FAFAFA"
        opacity="0.7" />
    <g opacity="0.9">
        <path
            d="M190.413 130.86L90.4126 134.92C89.8548 134.942 89.3105 134.745 88.8957 134.372C88.481 133.998 88.2287 133.477 88.1926 132.92C88.1732 132.364 88.3712 131.822 88.7446 131.41C89.118 130.997 89.6373 130.746 90.1926 130.71L190.193 126.65C190.75 126.628 191.295 126.825 191.709 127.198C192.124 127.572 192.376 128.093 192.413 128.65C192.435 129.207 192.237 129.75 191.864 130.163C191.49 130.576 190.969 130.826 190.413 130.86Z"
            fill="white" />
        <path
            d="M190.943 144.15L90.9426 148.21C90.3848 148.232 89.8405 148.035 89.4258 147.662C89.011 147.288 88.7587 146.767 88.7226 146.21C88.7031 145.653 88.9008 145.11 89.274 144.696C89.6471 144.282 90.1665 144.029 90.7226 143.99L190.723 139.93C191.28 139.91 191.823 140.108 192.237 140.481C192.651 140.854 192.904 141.374 192.943 141.93C192.96 142.486 192.761 143.028 192.388 143.442C192.016 143.855 191.498 144.109 190.943 144.15Z"
            fill="white" />
        <path
            d="M191.483 157.43L91.4826 161.49C90.9249 161.512 90.3805 161.315 89.9658 160.942C89.5511 160.568 89.2987 160.047 89.2626 159.49C89.2407 158.933 89.4378 158.39 89.8117 157.977C90.1856 157.564 90.7065 157.314 91.2626 157.28L191.263 153.22C191.819 153.198 192.363 153.395 192.776 153.769C193.189 154.143 193.439 154.664 193.473 155.22C193.495 155.775 193.299 156.317 192.927 156.73C192.555 157.143 192.037 157.394 191.483 157.43Z"
            fill="white" />
        <path
            d="M182.583 166.83L175.853 171.37L101.973 174.37L91.5925 170.56C91.6789 170.55 91.7662 170.55 91.8525 170.56L182.583 166.83Z"
            fill="white" />
        <path
            d="M155.213 183.38V183.46C155.214 184.004 155.008 184.528 154.636 184.926C154.265 185.323 153.756 185.564 153.213 185.6L134.703 186.35L134.073 186.14L124.213 182.52L153.043 181.34C153.598 181.332 154.136 181.54 154.541 181.921C154.946 182.301 155.187 182.825 155.213 183.38Z"
            fill="white" />
    </g>
    <path d="M201.873 121.67L177.953 120.64L167.443 95.58L201.873 121.67Z" fill="#263238"
        opacity="0.1" />
    <path d="M201.873 121.67L178.663 117.7L167.443 95.58L201.873 121.67Z" fill="#16ABB1" />
    <path
        d="M247.883 24.69C247.883 45.03 225.593 65.02 222.253 65.02C218.913 65.02 196.623 45.02 196.623 24.69C196.623 11.06 208.093 0 222.253 0C236.413 0 247.883 11.06 247.883 24.69Z"
        fill="#16ABB1" />
    <path d="M217.493 19.62C212.853 24.71 206.553 26.53 203.423 23.62C200.293 20.71 201.513 14.33 206.143 9.24002C210.773 4.15002 217.083 2.33002 220.223 5.18002C223.363 8.03002 222.133 14.53 217.493 19.62Z"
        fill="white"
        opacity="0.1" />
    <path d="M203.823 40.11C203.213 38.59 203.373 37.11 204.183 36.77C204.993 36.43 206.183 37.41 206.753 38.93C207.323 40.45 207.203 41.93 206.393 42.26C205.583 42.59 204.433 41.62 203.823 40.11Z"
        fill="white"
        opacity="0.1" />
    <path
        d="M221.153 129.02C221.045 129.017 220.942 128.973 220.866 128.897C220.789 128.821 220.745 128.718 220.743 128.61C220.713 127.261 221.12 125.939 221.903 124.84C222.574 123.855 222.933 122.692 222.933 121.5C222.933 120.308 222.574 119.145 221.903 118.16C221.147 117.048 220.743 115.734 220.743 114.39C220.743 113.046 221.147 111.732 221.903 110.62C222.574 109.637 222.933 108.475 222.933 107.285C222.933 106.095 222.574 104.932 221.903 103.95C221.147 102.84 220.743 101.528 220.743 100.185C220.743 98.842 221.147 97.5301 221.903 96.42C222.574 95.4375 222.933 94.2751 222.933 93.085C222.933 91.8949 222.574 90.7325 221.903 89.75C221.147 88.6399 220.743 87.328 220.743 85.985C220.743 84.642 221.147 83.3301 221.903 82.22C222.574 81.2375 222.933 80.0751 222.933 78.885C222.933 77.6949 222.574 76.5325 221.903 75.55C221.147 74.4399 220.743 73.128 220.743 71.785C220.743 70.442 221.147 69.1301 221.903 68.02C222.587 67.0473 222.938 65.8789 222.903 64.69C222.918 64.591 222.968 64.5007 223.044 64.4356C223.12 64.3704 223.217 64.3346 223.318 64.3346C223.418 64.3346 223.515 64.3704 223.591 64.4356C223.667 64.5007 223.717 64.591 223.733 64.69C223.761 66.0355 223.354 67.3542 222.573 68.45C221.89 69.4273 221.539 70.5982 221.573 71.79C221.537 72.9789 221.888 74.1473 222.573 75.12C223.328 76.2301 223.733 77.542 223.733 78.885C223.733 80.228 223.328 81.5399 222.573 82.65C221.896 83.6304 221.533 84.7936 221.533 85.985C221.533 87.1764 221.896 88.3395 222.573 89.32C223.328 90.4301 223.733 91.742 223.733 93.085C223.733 94.428 223.328 95.7399 222.573 96.85C221.896 97.8304 221.533 98.9936 221.533 100.185C221.533 101.376 221.896 102.54 222.573 103.52C223.328 104.63 223.733 105.942 223.733 107.285C223.733 108.628 223.328 109.94 222.573 111.05C221.895 112.032 221.532 113.197 221.532 114.39C221.532 115.583 221.895 116.748 222.573 117.73C223.328 118.842 223.732 120.156 223.732 121.5C223.732 122.844 223.328 124.158 222.573 125.27C221.887 126.246 221.536 127.418 221.573 128.61C221.573 128.665 221.562 128.719 221.54 128.769C221.519 128.82 221.488 128.865 221.449 128.903C221.41 128.942 221.363 128.972 221.313 128.992C221.262 129.012 221.207 129.021 221.153 129.02Z"
        fill="#263238" />
    <path
        d="M222.253 64.06C221.463 64.06 216.253 68.76 216.253 73.54H228.273C228.273 68.76 223.073 64.06 222.253 64.06Z"
        fill="#16ABB1" />
    <path
        d="M223.433 64.22H221.073C220.879 64.22 220.723 64.3767 220.723 64.57V64.82C220.723 65.0133 220.879 65.17 221.073 65.17H223.433C223.626 65.17 223.783 65.0133 223.783 64.82V64.57C223.783 64.3767 223.626 64.22 223.433 64.22Z"
        fill="#263238" />
    <path
        d="M87.0726 43.7C87.0726 64.03 64.7826 84.02 61.4426 84.02C58.1026 84.02 35.8126 64.02 35.8126 43.7C35.8126 30.06 47.2826 19 61.4426 19C75.6026 19 87.0726 30.06 87.0726 43.7Z"
        fill="#263238" />
    <path d="M57.2876 39.4533C61.9253 34.3619 63.1463 27.922 60.0146 25.0695C56.883 22.2169 50.5848 24.0319 45.9471 29.1233C41.3094 34.2147 40.0885 40.6545 43.2201 43.5071C46.3517 46.3596 52.6499 44.5447 57.2876 39.4533Z"
        fill="white"
        opacity="0.1" />
    <path d="M43.6126 59.94C43.0026 58.42 43.1626 56.94 43.9726 56.6C44.7826 56.26 45.9726 57.24 46.5426 58.76C47.1126 60.28 46.9926 61.76 46.1826 62.1C45.3726 62.44 44.2226 61.46 43.6126 59.94Z"
        fill="white"
        opacity="0.1" />
    <path
        d="M60.3026 148.02C60.1939 148.02 60.0896 147.977 60.0127 147.9C59.9358 147.823 59.8926 147.719 59.8926 147.61C59.8629 146.261 60.2698 144.939 61.0526 143.84C61.7237 142.855 62.0827 141.692 62.0827 140.5C62.0827 139.308 61.7237 138.145 61.0526 137.16C60.2973 136.048 59.8934 134.734 59.8934 133.39C59.8934 132.046 60.2973 130.732 61.0526 129.62C61.7373 128.647 62.0881 127.479 62.0526 126.29C62.086 125.098 61.7354 123.927 61.0526 122.95C60.2968 121.84 59.8926 120.528 59.8926 119.185C59.8926 117.842 60.2968 116.53 61.0526 115.42C61.7373 114.447 62.0881 113.279 62.0526 112.09C62.086 110.898 61.7354 109.727 61.0526 108.75C60.2968 107.64 59.8926 106.328 59.8926 104.985C59.8926 103.642 60.2968 102.33 61.0526 101.22C61.7233 100.239 62.0822 99.0784 62.0822 97.89C62.0822 96.7017 61.7233 95.541 61.0526 94.56C60.2968 93.4499 59.8926 92.138 59.8926 90.795C59.8926 89.452 60.2968 88.1401 61.0526 87.03C61.7354 86.0527 62.086 84.8818 62.0526 83.69C62.0552 83.5821 62.0992 83.4793 62.1755 83.4029C62.2519 83.3266 62.3547 83.2826 62.4626 83.28C62.5714 83.28 62.6756 83.3232 62.7525 83.4001C62.8294 83.477 62.8726 83.5813 62.8726 83.69C62.9038 85.0375 62.5006 86.3593 61.7226 87.46C61.0453 88.4384 60.6824 89.6001 60.6824 90.79C60.6824 91.98 61.0453 93.1417 61.7226 94.12C62.472 95.2327 62.8722 96.5436 62.8722 97.885C62.8722 99.2265 62.472 100.537 61.7226 101.65C61.0398 102.627 60.6892 103.798 60.7226 104.99C60.6871 106.179 61.038 107.347 61.7226 108.32C62.472 109.433 62.8722 110.744 62.8722 112.085C62.8722 113.426 62.472 114.737 61.7226 115.85C61.0398 116.827 60.6892 117.998 60.7226 119.19C60.6871 120.379 61.038 121.547 61.7226 122.52C62.472 123.633 62.8722 124.944 62.8722 126.285C62.8722 127.626 62.472 128.937 61.7226 130.05C61.0449 131.032 60.6819 132.197 60.6819 133.39C60.6819 134.583 61.0449 135.748 61.7226 136.73C62.4728 137.844 62.8736 139.157 62.8736 140.5C62.8736 141.843 62.4728 143.156 61.7226 144.27C61.0385 145.247 60.6878 146.418 60.7226 147.61C60.7226 147.665 60.7117 147.719 60.6905 147.769C60.6693 147.82 60.6382 147.865 60.599 147.904C60.5599 147.942 60.5135 147.972 60.4626 147.992C60.4117 148.012 60.3573 148.021 60.3026 148.02Z"
        fill="#16ABB1" />
    <path
        d="M61.4026 83.07C60.6126 83.07 55.4026 87.76 55.4026 92.54H67.4026C67.4226 87.76 62.1826 83.07 61.4026 83.07Z"
        fill="#263238" />
    <path
        d="M62.5826 83.22H60.2225C60.0292 83.22 59.8726 83.3767 59.8726 83.57V83.82C59.8726 84.0133 60.0292 84.17 60.2225 84.17H62.5826C62.7758 84.17 62.9326 84.0133 62.9326 83.82V83.57C62.9326 83.3767 62.7758 83.22 62.5826 83.22Z"
        fill="#16ABB1" />
    <path
        d="M236.129 147.586C242.186 142.023 242.587 132.604 237.025 126.547C231.463 120.49 222.044 120.088 215.986 125.651C209.929 131.213 209.528 140.632 215.09 146.689C220.652 152.746 230.071 153.148 236.129 147.586Z"
        fill="#DE5753" />
    <path
        d="M229.013 129.43V144.43H224.873V134.61C224.261 135.081 223.609 135.496 222.923 135.85C222.161 136.212 221.372 136.513 220.563 136.75V133.4C221.736 133.064 222.838 132.515 223.813 131.78C224.582 131.147 225.2 130.352 225.623 129.45L229.013 129.43Z"
        fill="white" />
</svg>