<svg fill="none" height="17" viewBox="0 0 16 17" width="16" xmlns="http://www.w3.org/2000/svg">
    <path
        d="M5.2465 14.6867C4.71984 14.6867 4.21984 14.56 3.77984 14.3067C2.73984 13.7067 2.1665 12.4867 2.1665 10.88V6.12668C2.1665 4.51335 2.73984 3.30001 3.77984 2.70001C4.81984 2.10001 6.15984 2.21335 7.55984 3.02001L11.6732 5.39335C13.0665 6.20001 13.8398 7.30668 13.8398 8.50668C13.8398 9.70668 13.0732 10.8133 11.6732 11.62L7.55984 13.9933C6.75317 14.4533 5.9665 14.6867 5.2465 14.6867ZM5.2465 3.31335C4.8865 3.31335 4.5665 3.39335 4.27984 3.56001C3.55984 3.97335 3.1665 4.88668 3.1665 6.12668V10.8733C3.1665 12.1133 3.55984 13.02 4.27984 13.44C4.99984 13.86 5.9865 13.74 7.05984 13.12L11.1732 10.7467C12.2465 10.1267 12.8398 9.33335 12.8398 8.50001C12.8398 7.66668 12.2465 6.87335 11.1732 6.25335L7.05984 3.88001C6.4065 3.50668 5.79317 3.31335 5.2465 3.31335Z"
        fill="white" />
</svg>