<svg fill="none" height="65" viewBox="0 0 64 65" width="64" xmlns="http://www.w3.org/2000/svg">
    <path
        d="M21.0561 21.184C21.0561 18.112 23.5521 15.68 26.5601 15.68C29.6321 15.68 32.0641 18.176 32.0641 21.184C32.0641 24.256 29.5681 26.688 26.5601 26.688C23.5521 26.688 21.0561 24.192 21.0561 21.184ZM43.3281 34.496H46.9121V11.328H56.1921V11.2V7.744V7.616H46.9121V0H43.3281V7.552H34.0481V7.744H33.9201V11.328H43.3281V34.496ZM29.5681 27.776C28.1601 27.008 26.3681 27.52 25.6001 28.928L24.0641 31.744C23.8721 30.272 23.4881 28.928 23.1681 28.352C22.4001 26.752 21.3761 26.112 21.3761 26.112C15.9361 23.04 13.0561 28.736 12.9921 28.928C12.4801 30.208 11.7121 32.256 11.7761 36.352C11.9681 45.632 17.3441 58.176 17.3441 58.176H6.91209C5.05609 58.176 3.39209 59.264 3.39209 61.312C3.39209 63.104 4.92809 64.192 6.78409 64.192H21.2481C23.4241 64.192 25.0881 62.976 25.1521 58.88L25.2801 41.728L30.7841 31.68C31.4881 30.272 30.9761 28.544 29.5681 27.776ZM29.5041 41.472V64H32.7041V44.672H57.6001V64H60.8001V41.472H29.5041Z"
        fill="white" />
</svg>