<svg fill="none" height="24" viewBox="0 0 25 24" width="25" xmlns="http://www.w3.org/2000/svg">
    <path
        d="M17.25 22.75H7.25C3.81 22.75 1.5 20.44 1.5 17V10C1.5 6.56 3.81 4.25 7.25 4.25H17.25C20.69 4.25 23 6.56 23 10V17C23 20.44 20.69 22.75 17.25 22.75ZM7.25 5.75C4.67 5.75 3 7.42 3 10V17C3 19.58 4.67 21.25 7.25 21.25H17.25C19.83 21.25 21.5 19.58 21.5 17V10C21.5 7.42 19.83 5.75 17.25 5.75H7.25Z"
        fill="#232323" fill-opacity="0.33" />
    <path
        d="M7.25 5.75C6.84 5.75 6.5 5.41 6.5 5V2C6.5 1.59 6.84 1.25 7.25 1.25C7.66 1.25 8 1.59 8 2V5C8 5.41 7.66 5.75 7.25 5.75Z"
        fill="#232323" fill-opacity="0.33" />
    <path
        d="M8.75 16.75C6.96 16.75 5.5 15.29 5.5 13.5C5.5 11.71 6.96 10.25 8.75 10.25C10.54 10.25 12 11.71 12 13.5C12 15.29 10.54 16.75 8.75 16.75ZM8.75 11.75C7.79 11.75 7 12.54 7 13.5C7 14.46 7.79 15.25 8.75 15.25C9.71 15.25 10.5 14.46 10.5 13.5C10.5 12.54 9.71 11.75 8.75 11.75Z"
        fill="#232323" fill-opacity="0.33" />
    <path
        d="M18.75 11.75H14.75C14.34 11.75 14 11.41 14 11C14 10.59 14.34 10.25 14.75 10.25H18.75C19.16 10.25 19.5 10.59 19.5 11C19.5 11.41 19.16 11.75 18.75 11.75Z"
        fill="#232323" fill-opacity="0.33" />
    <path
        d="M15.25 15.75H14.75C14.34 15.75 14 15.41 14 15C14 14.59 14.34 14.25 14.75 14.25H15.25C15.66 14.25 16 14.59 16 15C16 15.41 15.66 15.75 15.25 15.75Z"
        fill="#232323" fill-opacity="0.33" />
    <path
        d="M18.75 15.75H18.25C17.84 15.75 17.5 15.41 17.5 15C17.5 14.59 17.84 14.25 18.25 14.25H18.75C19.16 14.25 19.5 14.59 19.5 15C19.5 15.41 19.16 15.75 18.75 15.75Z"
        fill="#232323" fill-opacity="0.33" />
</svg>